<svg width="311" height="140" viewBox="0 0 311 140" fill="none" xmlns="http://www.w3.org/2000/svg">
<path d="M99.6712 0.965797C96.3236 2.38011 92.868 8.36375 92.868 12.9331C92.868 16.4145 97.8354 39.0435 98.9153 40.0227C99.1312 40.2402 99.9951 39.8051 100.967 39.0435C103.991 36.5413 104.423 42.0897 101.939 50.6844C101.399 52.6427 101.723 53.1867 103.127 53.1867C106.582 53.1867 111.766 46.1151 116.085 35.7797C122.132 20.875 127.856 15.5441 142.434 11.1924C143.73 10.7572 143.622 10.2132 141.894 8.58134C140.382 7.05823 137.25 6.07909 131.203 5.31754C126.452 4.66478 119.109 3.25046 115.005 2.05373C106.798 -0.339724 103.451 -0.557311 99.6712 0.965797Z" fill="black"/>
<path d="M215.864 4.66478C215.648 4.88237 209.601 5.75272 202.474 6.40548C193.511 7.27583 188.544 8.25497 186.168 9.66928C177.529 15.109 165.219 40.5666 165.219 53.0779C165.219 55.6889 166.731 58.0824 172.022 63.9572C179.905 72.5519 182.605 77.6652 183.36 84.9544C183.576 87.8918 184.224 90.1764 184.656 90.1764C184.98 90.1764 186.492 88.9797 187.896 87.4566C189.3 85.9335 191.243 84.7368 192.323 84.7368C196.967 84.7368 208.305 65.9155 209.169 56.7768C209.925 49.4877 200.098 21.419 195.347 16.9584C192.215 14.021 192.215 14.021 194.699 14.021C198.802 14.021 202.366 18.264 206.145 27.6202C211.977 41.7634 216.728 50.6844 219.86 53.0779C223.531 55.9065 225.151 54.8186 226.015 48.8349C226.339 46.4415 228.175 41.9809 230.226 38.8259C233.358 33.8214 233.79 32.1895 233.682 26.2059C233.574 19.3519 234.006 18.4816 236.274 20.7662C238.541 23.0509 237.785 16.3057 235.194 11.7364C233.682 9.01652 231.522 7.05824 228.715 5.86151C224.935 4.3384 216.944 3.57685 215.864 4.66478ZM180.337 43.3953C180.337 44.592 179.581 45.5711 178.717 45.5711C177.097 45.5711 176.449 43.2865 177.853 41.9809C179.149 40.5666 180.337 41.2194 180.337 43.3953ZM192.323 45.6799C194.483 49.8141 189.192 54.2746 182.281 54.2746C178.177 54.2746 173.858 51.6636 173.858 49.2701C173.858 47.0942 175.261 47.4206 176.881 49.9229C177.745 51.446 179.365 52.0987 181.957 52.0987C186.708 52.0987 189.408 48.5085 188.328 43.8304C187.572 40.893 187.68 40.7842 189.408 42.1985C190.38 43.0689 191.675 44.592 192.323 45.6799Z" fill="black"/>
<path d="M127.64 39.8051C126.884 40.1315 125.588 41.7634 124.616 43.6128C123.104 46.5503 123.104 47.0942 124.616 49.4877C128.503 55.2537 135.631 53.2955 136.278 46.2239L136.602 42.8513L139.086 47.0942C141.894 51.7724 143.19 51.8811 141.462 47.0942C138.87 40.349 133.363 37.4116 127.64 39.8051ZM129.583 43.9392C129.583 44.8096 128.827 45.5711 127.964 45.5711C127.1 45.5711 126.344 44.8096 126.344 43.9392C126.344 43.0689 127.1 42.3073 127.964 42.3073C128.827 42.3073 129.583 43.0689 129.583 43.9392Z" fill="black"/>
<path d="M25.1608 49.9229C17.0618 54.8186 12.9583 66.0243 12.9583 83.3224V94.5282H6.47917C2.91562 94.5282 0 94.9634 0 95.5073C0 97.4656 2.91563 98.7711 8.09896 99.0975L13.3903 99.4239L15.1181 108.127C18.8976 127.057 23.217 134.782 29.6962 134.782H33.3677L30.884 129.016C27.8604 122.271 25.1608 111.5 24.2969 103.232L23.541 97.248L29.8042 94.5282C42.1146 89.3061 48.5937 80.7114 49.4576 68.4177C49.9976 59.6055 47.4059 52.7515 42.2226 49.5965C37.9031 47.0942 29.5882 47.203 25.1608 49.9229ZM36.2833 52.9691C38.659 54.601 39.9549 58.6263 39.9549 64.8276C39.9549 73.531 35.3115 83.3224 29.0483 87.8918C26.5646 89.7413 24.0809 91.2644 23.433 91.2644C22.0292 91.2644 23.217 66.8946 24.9448 61.5638C27.3205 54.3834 32.5038 50.358 36.2833 52.9691Z" fill="black"/>
<path d="M292.102 53.6218C290.483 54.8186 290.051 56.2329 290.375 60.2582C290.483 63.0869 290.375 67.765 289.943 70.5936C289.295 75.2717 288.863 76.0333 285.947 77.0124C280.116 79.0795 279.468 78.6443 280.224 74.075C280.656 71.464 280.332 69.3969 279.36 67.9826C278.064 66.1331 277.524 66.1331 274.717 67.4386C271.909 68.8529 271.585 69.6145 271.045 75.4893L270.505 82.0169L262.406 84.4104C257.979 85.7159 252.903 86.8038 251.176 86.8038C248.584 86.9126 248.26 87.1302 249.448 88.5445C251.068 90.6116 255.927 90.6116 263.27 88.7621C266.294 87.8918 268.993 87.4566 269.317 87.6742C269.533 87.8918 268.561 92.5699 267.158 98.1184C265.754 103.667 264.242 112.153 263.81 117.157C263.27 124.882 263.486 126.405 265.106 128.254C266.186 129.451 268.022 130.43 269.209 130.43C271.585 130.43 276.984 124.99 277.848 121.727C278.604 119.007 276.444 117.592 275.149 119.986C274.609 120.965 273.421 121.727 272.665 121.727C270.181 121.727 270.721 115.308 274.501 99.2063L277.956 84.7368L282.168 83.54C284.435 82.8873 286.595 82.6697 286.919 82.8873C287.135 83.2137 285.839 90.938 284.003 100.077C279.9 120.095 279.9 129.451 283.895 132.715C287.027 135.326 289.079 135.326 293.29 132.715C297.61 130.104 302.145 121.074 300.201 119.224C299.122 118.245 298.69 118.245 298.366 119.333C297.07 122.814 292.966 126.405 291.023 125.643C289.295 124.99 289.187 123.902 289.727 115.96C290.159 108.563 295.234 81.7993 296.422 80.6026C296.638 80.385 299.985 80.0586 303.873 80.0586C310.352 79.8411 311 79.6235 311 77.5564C311 73.8574 308.3 72.4431 302.793 73.0959C298.042 73.6398 297.934 73.531 298.474 70.7024C300.093 62.3253 300.417 59.3879 299.769 55.9065C299.122 52.8603 298.474 52.0987 296.53 52.0987C295.234 52.0987 293.182 52.7515 292.102 53.6218Z" fill="black"/>
<path d="M100.967 71.8991C97.6194 73.7486 97.4035 74.8366 98.9153 80.1674C100.751 86.1511 100.859 105.843 99.1312 110.956C96.3236 119.551 91.1403 123.25 88.5486 118.572C87.0368 115.634 87.3607 102.47 88.9805 97.9008C90.6003 93.4402 92.7601 92.3523 93.6239 95.5073C94.3799 98.336 96.5396 97.9008 96.9715 94.8546C97.4035 92.1347 94.5958 89.0885 91.7882 89.0885C90.7083 89.0885 88.3326 90.394 86.4969 91.9171C78.1819 98.9887 77.642 122.923 85.741 126.078C89.7364 127.601 94.5958 125.426 97.2955 121.074C98.4833 119.007 99.6712 117.375 99.7792 117.375C99.9951 117.375 99.7792 119.442 99.3472 121.944C98.3753 126.949 98.6993 128.254 100.751 128.254C103.883 128.145 104.962 125.861 106.258 116.178C107.878 105.19 109.498 100.512 112.09 99.4239C115.113 98.2272 115.869 100.621 114.573 107.801C113.925 111.718 113.385 117.701 113.385 121.074C113.385 126.84 113.709 127.71 117.057 131.083C119.109 133.15 121.484 134.782 122.456 134.782C124.616 134.782 124.616 134.564 122.024 129.668C119.541 124.882 119.325 119.224 121.376 107.583C122.996 98.7711 122.348 95.3985 118.893 93.549C116.409 92.1347 111.442 93.6578 109.39 96.3777C108.202 97.9008 107.986 97.0304 107.878 91.1556C107.77 76.1421 105.394 69.5057 100.967 71.8991Z" fill="black"/>
<path d="M140.382 75.7069C137.682 77.1212 136.17 78.8619 134.983 82.2345C133.579 86.3687 133.687 87.4566 135.415 93.0051L137.358 99.0975L134.659 102.035C122.78 114.764 127.1 134.891 142.542 139.133C148.805 140.874 158.524 139.895 164.463 137.066C167.918 135.326 170.294 134.999 174.398 135.435C177.745 135.761 180.769 135.435 182.389 134.564C185.844 132.715 186.6 130.43 183.684 130.43C182.497 130.43 180.337 129.995 178.825 129.342L176.125 128.363L178.933 123.25C182.497 116.94 182.928 107.366 180.013 102.905C177.853 99.5327 173.642 98.1184 169.646 99.5327C166.623 100.621 165.651 102.905 164.679 111.282L163.923 116.504L161.223 114.002C159.711 112.588 156.364 108.563 153.772 104.972L149.021 98.6623L153.772 94.093C158.848 89.4149 160.467 85.3895 159.387 80.929C157.876 75.0542 147.293 72.1167 140.382 75.7069ZM152.692 79.2971C154.744 81.3642 151.828 82.3433 145.025 81.7993C138.222 81.2554 137.25 80.0587 141.894 78.1004C144.593 77.0124 151.073 77.6652 152.692 79.2971ZM142.758 107.366C143.73 108.998 147.509 113.567 151.073 117.592C154.744 121.509 157.66 125.317 157.66 125.969C157.66 127.928 151.505 130.43 146.321 130.43C138.438 130.43 134.767 127.819 132.391 120.203C130.987 115.852 136.278 104.32 139.734 104.32C140.382 104.32 141.786 105.625 142.758 107.366ZM170.834 110.847C170.51 115.743 167.594 122.597 164.787 124.882C163.383 126.078 163.599 125.208 165.327 121.291C166.515 118.572 167.81 113.785 168.134 110.847C168.89 104.102 171.266 104.102 170.834 110.847Z" fill="black"/>
<path d="M210.033 77.3388C203.986 84.5192 195.347 105.19 192.215 119.768C190.595 127.057 191.243 129.342 194.699 129.342C197.075 129.342 197.399 128.798 198.047 122.379C198.802 114.764 202.798 101.382 206.253 94.4194C207.441 92.1347 208.521 90.1764 208.737 90.1764C208.845 90.1764 208.953 94.9634 208.953 100.947C208.953 112.044 210.033 115.199 213.812 115.199C215.108 115.199 216.836 112.479 219.644 105.625C223.531 96.1601 227.635 88.4358 228.391 89.1973C228.607 89.4149 228.067 94.7458 227.095 100.947C225.259 114.002 225.907 124.011 228.931 129.125C230.982 132.497 232.494 133.15 237.03 132.606C240.161 132.28 240.161 132.062 237.677 128.581C233.142 122.488 233.682 100.512 238.757 82.8873C241.025 74.9454 240.485 73.531 235.842 74.075C232.17 74.5102 226.447 81.6906 221.156 92.5699C219.212 96.5953 217.16 99.8591 216.728 99.8591C215.648 99.9679 216.62 89.1973 218.24 82.0169C219.752 74.7278 219.536 73.8574 216.08 73.8574C213.812 73.8574 212.085 74.8366 210.033 77.3388Z" fill="black"/>
<path d="M62.416 93.1139C58.7444 97.248 57.2326 102.144 57.2326 110.738C57.2326 122.488 61.876 128.689 69.4351 126.731C73.2146 125.861 75.2663 122.379 76.6701 115.09C78.074 107.692 76.4542 98.9887 72.8906 94.637C71.3788 93.0051 70.5149 91.2644 70.9469 90.8292C71.2708 90.5028 70.191 90.1764 68.4632 90.1764C66.3035 90.1764 64.2517 91.1556 62.416 93.1139ZM69.0031 99.6415C72.1347 106.495 71.8108 122.814 68.4632 122.814C66.0875 122.814 64.6837 117.81 64.5757 109.215C64.3597 97.6832 66.3035 93.6578 69.0031 99.6415Z" fill="black"/>
<path d="M40.2788 93.549C31.8559 96.704 30.2361 117.048 37.6872 125.099C42.0066 129.777 45.4622 130.212 49.7816 126.296C53.1292 123.358 53.4531 122.488 53.7771 115.308C54.425 103.232 50.2135 94.2018 44.8142 96.2689C43.7344 96.704 43.3024 97.5744 43.8424 98.7711C48.7017 109.977 50.1056 123.358 46.434 123.358C41.6826 123.358 38.0111 103.558 41.5746 96.8128C43.6264 92.6787 43.5184 92.2435 40.2788 93.549Z" fill="black"/>
<path d="M242.213 95.8337C241.133 97.6832 238.757 113.241 238.649 119.224C238.649 128.363 246.532 131.409 253.227 124.664C257.439 120.421 260.031 112.588 261.002 101.817L261.65 94.3106L258.519 94.7458C255.495 95.0721 255.387 95.2897 254.739 102.905C253.551 116.069 249.124 126.187 245.992 123.032C245.02 122.053 245.236 119.116 246.532 111.174C249.124 96.3777 249.016 94.5282 245.776 94.5282C244.265 94.5282 242.753 95.1809 242.213 95.8337Z" fill="black"/>
</svg>
